inDegrees=no
num_controls=7
num_derivatives=13
num_iterations=152
num_multipliers=7
num_parameters=0
num_slacks=7
num_states=26
objective=5.635815
objective_accelerations=0.587471
objective_balance=0.020314
objective_effort=0.447949
objective_height=4.509258
objective_ligament=0.070823
solver_duration=1261.211554
status=Solve_Succeeded
success=true
DataType=double
version=3
OpenSimVersion=4.4-2022-07-23-0e9fedc
endheader
time	/jointset/ground_pelvis/pelvis_tilt/value	/jointset/ground_pelvis/pelvis_tx/value	/jointset/ground_pelvis/pelvis_ty/value	/jointset/hip_r/hip_flexion_r/value	/jointset/hip_r/hip_adduction_r/value	/jointset/hip_r/hip_rotation_r/value	/jointset/back/lumbar_extension/value	/jointset/patellofemoral_r/patellar_flexion_r/value	/jointset/knee_r/knee_flexion_r/value	/jointset/knee_r/knee_adduction_r/value	/jointset/knee_r/knee_rotation_r/value	/jointset/ankle_r/ankle_angle_r/value	/jointset/subtalar_r/subtalar_angle_r/value	/jointset/ground_pelvis/pelvis_tilt/speed	/jointset/ground_pelvis/pelvis_tx/speed	/jointset/ground_pelvis/pelvis_ty/speed	/jointset/hip_r/hip_flexion_r/speed	/jointset/hip_r/hip_adduction_r/speed	/jointset/hip_r/hip_rotation_r/speed	/jointset/back/lumbar_extension/speed	/jointset/patellofemoral_r/patellar_flexion_r/speed	/jointset/knee_r/knee_flexion_r/speed	/jointset/knee_r/knee_adduction_r/speed	/jointset/knee_r/knee_rotation_r/speed	/jointset/ankle_r/ankle_angle_r/speed	/jointset/subtalar_r/subtalar_angle_r/speed	/forceset/tau_hip_flexion_r	/forceset/tau_hip_adduction_r	/forceset/tau_hip_rotation_r	/forceset/tau_knee_flexion_r	/forceset/tau_ankle_angle_r	/forceset/tau_subtalar_angle_r	/forceset/tau_lumbar_extension	lambda_cid13_p0	lambda_cid14_p0	lambda_cid14_p1	lambda_cid14_p2	lambda_cid14_p3	lambda_cid14_p4	lambda_cid14_p5	/jointset/ground_pelvis/pelvis_tilt/accel	/jointset/ground_pelvis/pelvis_tx/accel	/jointset/ground_pelvis/pelvis_ty/accel	/jointset/hip_r/hip_flexion_r/accel	/jointset/hip_r/hip_adduction_r/accel	/jointset/hip_r/hip_rotation_r/accel	/jointset/back/lumbar_extension/accel	/jointset/patellofemoral_r/patellar_flexion_r/accel	/jointset/knee_r/knee_flexion_r/accel	/jointset/knee_r/knee_adduction_r/accel	/jointset/knee_r/knee_rotation_r/accel	/jointset/ankle_r/ankle_angle_r/accel	/jointset/subtalar_r/subtalar_angle_r/accel	gamma_cid13_p0	gamma_cid14_p0	gamma_cid14_p1	gamma_cid14_p2	gamma_cid14_p3	gamma_cid14_p4	gamma_cid14_p5
1	-0.2373085316826133	-0.008147250828599319	0.6435442148375985	1.406861699986242	-0.2376265768746704	-0.09392108488326224	-0.7853981264849046	1.486534281654666	1.48653428165468	-0.1745173800450521	0.1745302249495943	0.4362721340700271	0.1772430460160958	0.0690278631288322	0.004852831231731756	0.01598196513556237	-0.1009088772099803	-0.0007095563379466304	-0.00144924150197379	-3.316925859099894e-05	-0.02053256418000265	-0.02053256418000302	0.005369981903809324	-0.0004048281052156558	0.01102151211759008	0.004399213123436591	-0.3345467764367672	0.0234290936745614	0.01039598383285982	-0.4488687150846882	-0.03141941209100456	0.01129394980442467	0.3579735534166043	-0.04131996979000531	-60.90382741395855	-8.29352122293616	4.639344328102045	6.718507660614445	-767.3143064144591	73.56032057650995	1.314613504591003	0.173617129589554	1.782132999124429	-5.410700142437346	0.2593961374372621	-0.53581061790648	-0.01394225122039096	-4.949158228083139	-4.949158228083232	0.7181404240167335	-0.02544149920809557	-1.006222738102682	-0.01778459319396743	9.615190211040243e-10	-3.484639532071859e-10	1.154252300093582e-08	6.669108317429164e-09	2.574019999323929e-09	-5.958040898993473e-09	1.716697911691724e-08
1.01	-0.2365535856565758	-0.008089866844552677	0.6437929613519825	1.405583206098033	-0.2376208699532681	-0.09395959325914589	-0.7853965146442046	1.48608207451572	1.486082074515735	-0.174424872576522	0.1745246825863963	0.4363322490268872	0.177285871842843	0.08192149230962945	0.006644906925950152	0.03376220994218412	-0.1547678305774833	0.001837795523054828	-0.006212346674634142	0.000543607155136312	-0.06989510195193716	-0.06989510195193734	0.01318642599291996	-0.0006902823272844346	0.001027092255485941	0.00415307894691997	-0.3353358077085994	0.02345578693386419	0.01045513779837338	-0.4487801989444249	-0.03166685012479893	0.01130399190845501	0.3590556268287046	-0.04131402460372224	-61.01223888108434	-8.303366598569367	4.635459496803428	6.490768185352888	-767.9438277219095	73.56799718237008	1.270761966767663	0.1851439182806056	1.775198663912868	-5.370180870728074	0.2504380415005719	-0.4405455538722418	0.121698009492297	-4.927738278911012	-4.927738278910984	0.8216341560758624	-0.02808255802281244	-0.9922101469207314	-0.02994831730618322	4.839713013393275e-09	5.779428723872298e-09	3.854991875764944e-08	3.717756413879929e-08	-3.373138696615512e-10	-1.187846586053097e-08	7.139155765422287e-08
1.02	-0.2356708984703421	-0.008013933877775587	0.6442193560029292	1.403766785088775	-0.2375900828470531	-0.0940445297041004	-0.7853834929527752	1.485136654653623	1.485136654653626	-0.1742525531161512	0.1745166886461701	0.4362931880776806	0.1773258522303388	0.09457609516815906	0.008562627777821137	0.05151159244807886	-0.2084943014178482	0.004306480626798797	-0.01073485532435147	0.002248800441746167	-0.1191751088103685	-0.119175108810368	0.02133238027073338	-0.0008951435220116381	-0.008813669072875896	0.003830125273375567	-0.3361248389804711	0.02348248019322211	0.01051429176370941	-0.4486916828041796	-0.03191428815856864	0.01131403401260589	0.360137700240772	-0.04131526201685493	-61.12842302121556	-8.31065325896345	4.626689142812258	6.261705557500338	-768.7007432505096	73.60932221512756	1.266808240137484	0.1987461611200833	1.775960538979025	-5.384203637009766	0.2436627859857123	-0.4876913133179464	0.2117411233531867	-4.932652045382493	-4.932652045382483	0.7840424617572894	-0.009322893739649394	-0.9754910313542086	-0.03314849259961334	1.041672002880315e-08	1.520495418145797e-08	6.86923879826913e-08	7.868122992119722e-08	-7.014259052319613e-09	-1.863468670102051e-08	1.409008993780927e-07
1.03	-0.2346629049971793	-0.007918349334127727	0.6448230518109008	1.401414059216282	-0.2375349320175168	-0.09417361632806735	-0.7853479514438387	1.483698642106335	1.483698642106333	-0.1739972683357884	0.1745070204003044	0.4361560226041364	0.1773621121741008	0.1069766855804527	0.01055992261534956	0.06921848803491813	-0.2619976230568096	0.006718446689029803	-0.01505489219439398	0.00503232359717483	-0.1684342643174745	-0.1684342643174743	0.029764311482536	-0.001030476770211959	-0.01864010395538228	0.00340014464710249	-0.3368424392382707	0.02370484733795245	0.01057352380017794	-0.4478737064851054	-0.0331626929136189	0.01136351376811421	0.3610377319701016	-0.04134084297088102	-61.55546145660534	-8.338001129212596	4.60142601795197	6.537535713211836	-769.1270114693225	73.53877771849072	1.219802340923295	0.2010646078679099	1.766686780935154	-5.325404257435475	0.2391933851671073	-0.4000140556487727	0.3375812493254634	-4.923580090073206	-4.923580090073282	0.8787273331832173	-0.01440163343367546	-0.9893210878496123	-0.05115086482892915	1.601106187097957e-08	2.466412895313046e-08	9.886684775332837e-08	1.202970917236057e-07	-1.372962884021925e-08	-2.539943607088712e-08	2.105662080732541e-07
1.04	-0.2335322820400683	-0.007802623149545044	0.6456035431172206	1.398527898561366	-0.2374558155536042	-0.09434507415705551	-0.7852793900358094	1.481767831446636	1.481767831446626	-0.1736564724668592	0.1744962462033741	0.4359199725075294	0.1773934267081616	0.1191019919586615	0.01259095596478512	0.0868706921177127	-0.315181257899621	0.009099607504258395	-0.01920909633649165	0.008852780260113553	-0.2177347312925236	-0.2177347312925236	0.03843459798599625	-0.001116333741349108	-0.02859059368392034	0.002841043333318321	-0.3375600394961193	0.02392721448273557	0.01063275583654846	-0.4470557301660431	-0.03441109766864511	0.01141299352373639	0.3619377636993873	-0.0413735753208631	-61.99029913892407	-8.362510086035442	4.570907320870417	6.810187259971574	-769.6832251482724	73.50290606441212	1.211751433320558	0.2054938635014688	1.765022238170073	-5.320266277779764	0.2375017365851775	-0.4545247677290487	0.4191278248551857	-4.940914338971108	-4.940914338971099	0.8317135200888343	0.0005723616731497744	-1.000302000560639	-0.05897263010197928	2.091954429305813e-08	3.227326219874867e-08	1.268597988810592e-07	1.591493320551215e-07	-1.763884780912915e-08	-3.11977302720941e-08	2.726407492757335e-07
1.05	-0.2322816685235205	-0.007666351091910725	0.6465602203142288	1.39511146812695	-0.2373530726148234	-0.09455726794277138	-0.7851675202075975	1.47934396304979	1.47934396304978	-0.1732278173992461	0.1744848707393238	0.4355838687715435	0.1774184829098871	0.130983332383193	0.01467574889415444	0.1044491350178957	-0.3680519234912924	0.01144177869181063	-0.02320165128187599	0.01368945035388698	-0.2670305547878682	-0.2670305547878685	0.04733378414753506	-0.001152708433833099	-0.03864371477273665	0.002148452429769023	-0.3379032434514054	0.02408232479484881	0.01075906369652996	-0.4461281948138189	-0.0352219752924842	0.01142372726921194	0.3625843058010084	-0.0414084766569817	-62.25778537996639	-8.379764411253246	4.545194952590162	6.905276096005273	-769.8519459753443	73.44222876283632	1.170726556758714	0.2118116766739191	1.751906024593007	-5.262523261008097	0.231520468913305	-0.367403690289117	0.5411763474022734	-4.922662572207197	-4.922662572207298	0.9246235296747278	-0.004781819236744833	-1.009850637568916	-0.07761621549970737	2.580659360825863e-08	3.98245816466777e-08	1.547845778636993e-07	1.979152092156719e-07	-2.146037456494565e-08	-3.696582274928048e-08	3.344780789940666e-07
